<?xml version="1.0" encoding="UTF-8" standalone="no"?>
<!DOCTYPE svg PUBLIC "-//W3C//DTD SVG 1.1//EN" "http://www.w3.org/Graphics/SVG/1.1/DTD/svg11.dtd">
<svg width="100%" height="100%" viewBox="0 0 700 700" version="1.1" xmlns="http://www.w3.org/2000/svg" xmlns:xlink="http://www.w3.org/1999/xlink" xml:space="preserve" xmlns:serif="http://www.serif.com/" style="fill-rule:evenodd;clip-rule:evenodd;stroke-linejoin:round;stroke-miterlimit:2;">
    <g transform="matrix(1.26352,0,0,1.26352,-91.0428,-1.81193)">
        <path d="M383.14,539.83C453.222,514.955 533.87,514.896 606.29,527.189C609.767,527.779 612.97,525.228 612.97,521.56L612.966,260.69C612.966,257.862 611.04,255.557 608.259,255.065L590.368,252.171L590.368,488.421C590.368,498.018 582.294,505.694 572.583,505.034C510.911,500.858 437.003,506.248 383.143,539.819L383.14,539.83ZM456.367,162.26C453.34,162.26 450.89,159.803 450.89,156.783C450.89,153.76 453.347,151.307 456.367,151.307L482.91,151.307C485.937,151.307 488.387,153.764 488.387,156.783C488.387,159.807 485.93,162.26 482.91,162.26L456.367,162.26ZM429.086,85.448C426.945,87.589 423.48,87.589 421.34,85.448C419.199,83.307 419.199,79.843 421.34,77.702L440.106,58.936C442.246,56.795 445.711,56.795 447.852,58.936C449.993,61.077 449.993,64.541 447.852,66.682L429.086,85.448ZM355.481,50.425C355.481,53.452 353.024,55.902 350.004,55.902C346.981,55.902 344.528,53.445 344.528,50.425L344.524,23.882C344.524,20.855 346.981,18.405 350,18.405C353.024,18.405 355.477,20.862 355.477,23.882L355.477,50.425L355.481,50.425ZM278.669,77.702C280.81,79.843 280.81,83.308 278.669,85.448C276.528,87.589 273.063,87.589 270.923,85.448L252.157,66.682C250.016,64.542 250.016,61.077 252.157,58.936C254.297,56.795 257.762,56.795 259.903,58.936L278.669,77.702ZM243.646,151.307C246.673,151.307 249.123,153.764 249.123,156.784C249.123,159.807 246.666,162.26 243.646,162.26L217.103,162.26C214.076,162.26 211.626,159.803 211.626,156.784C211.626,153.76 214.083,151.307 217.103,151.307L243.646,151.307ZM159.849,474.107C150.587,474.107 143.224,466.685 143.197,457.447L143.193,220.617L125.881,221.578C122.889,221.789 120.596,224.254 120.596,227.277L120.596,488.427C120.612,491.833 123.248,494.267 126.697,494.126C189.709,489.857 263.107,495.443 318.807,528.247C277.241,487.45 214.917,473.915 159.857,474.106L159.849,474.107ZM381.209,528.252C421.635,488.572 484.389,473.514 539.639,474.084C548.854,474.572 556.823,466.893 556.823,457.447L556.823,220.617L574.135,221.578C577.127,221.789 579.42,224.254 579.42,227.277L579.42,488.427C579.405,491.833 576.772,494.267 573.319,494.126C510.307,489.857 436.909,495.443 381.209,528.247L381.209,528.252ZM540.239,190.522C494.251,189.932 442.462,200.522 403.889,226.292C398.85,234.944 395.092,245.089 395.092,260.112L395.092,301.167C395.092,324.175 378.6,344.503 355.49,347.366L355.49,541.606C397.111,483.004 471.6,463.153 540.17,463.153C543.365,463.153 545.869,460.649 545.869,457.45L545.865,196.24C545.865,193.103 543.346,190.552 540.24,190.513L540.239,190.522ZM516.848,426.932C471.442,430.1 423.496,443.541 388.448,473.733C386.167,475.706 382.721,475.46 380.741,473.178C378.764,470.897 379.014,467.452 381.296,465.471C418.21,433.678 468.273,419.358 516.116,416.022C519.131,415.823 521.733,418.104 521.936,421.116C522.135,424.132 519.858,426.733 516.842,426.936L516.848,426.932ZM516.848,392.037C471.446,395.205 423.496,408.646 388.448,438.838C386.167,440.811 382.721,440.565 380.741,438.283C378.764,436.002 379.014,432.557 381.296,430.576C418.21,398.783 468.273,384.463 516.116,381.127C519.131,380.928 521.733,383.209 521.936,386.221C522.139,389.233 519.858,391.838 516.842,392.041L516.848,392.037ZM516.848,357.142C471.446,360.31 423.496,373.751 388.448,403.943C386.167,405.916 382.721,405.67 380.741,403.388C378.764,401.107 379.014,397.662 381.296,395.681C418.21,363.888 468.273,349.568 516.116,346.232C519.131,346.033 521.733,348.314 521.936,351.326C522.135,354.342 519.858,356.943 516.842,357.146L516.848,357.142ZM516.848,322.247C471.442,325.415 423.496,338.856 388.448,369.048C386.167,371.021 382.721,370.775 380.741,368.493C378.768,366.212 379.014,362.767 381.296,360.786C418.21,328.993 468.273,314.673 516.116,311.337C519.131,311.138 521.733,313.415 521.936,316.431C522.139,319.447 519.858,322.048 516.842,322.251L516.848,322.247ZM516.848,287.352C479.649,289.95 440.821,299.457 408.868,319.227C406.302,320.809 402.942,320.016 401.356,317.454C399.774,314.887 400.567,311.528 403.13,309.942C436.638,289.212 477.079,279.165 516.11,276.446C519.125,276.247 521.727,278.524 521.93,281.54C522.133,284.555 519.852,287.157 516.836,287.36L516.848,287.352ZM516.848,252.457C480.121,255.02 442.047,264.258 410.328,283.449C407.738,285.008 404.379,284.179 402.816,281.59C401.258,279 402.086,275.64 404.676,274.078C437.809,254.023 477.735,244.223 516.116,241.547C519.131,241.348 521.733,243.629 521.936,246.641C522.139,249.653 519.858,252.258 516.842,252.461L516.848,252.457ZM304.928,301.176L304.928,260.121C304.928,245.094 301.17,234.949 296.131,226.301C257.455,200.465 205.736,189.949 159.781,190.531C156.68,190.57 154.156,193.121 154.156,196.258L154.156,457.458C154.191,460.649 156.641,463.184 159.855,463.184C220.476,462.88 300.395,479.465 344.535,541.614L344.531,347.354C321.418,344.491 304.929,324.163 304.929,301.155L304.928,301.176ZM183.898,241.543C220.007,244.004 261.089,253.352 295.338,274.074C297.928,275.633 298.764,278.996 297.197,281.586C295.639,284.176 292.275,285.012 289.686,283.445C256.827,263.601 217.827,254.816 183.166,252.453C180.15,252.254 177.869,249.648 178.072,246.633C178.275,243.617 180.877,241.336 183.892,241.539L183.898,241.543ZM183.898,276.438C220.601,278.942 262.222,288.489 296.878,309.934C299.444,311.516 300.237,314.879 298.651,317.446C297.066,320.012 293.706,320.805 291.14,319.219C258.089,298.789 218.206,289.739 183.16,287.344C180.144,287.145 177.863,284.539 178.066,281.524C178.269,278.508 180.871,276.227 183.886,276.43L183.898,276.438ZM319.278,473.178C317.305,475.459 313.852,475.709 311.571,473.733C275.298,442.424 225.489,429.819 183.171,426.932C180.155,426.732 177.874,424.127 178.077,421.111C178.276,418.096 180.882,415.814 183.898,416.018C228.605,419.068 280.382,432.452 318.718,465.467C320.999,467.439 321.249,470.892 319.272,473.174L319.278,473.178ZM319.278,438.283C317.305,440.564 313.852,440.814 311.571,438.838C275.298,407.529 225.489,394.924 183.171,392.037C180.155,391.837 177.874,389.232 178.077,386.216C178.28,383.201 180.882,380.919 183.898,381.123C228.605,384.173 280.386,397.557 318.718,430.572C320.999,432.544 321.249,435.997 319.272,438.279L319.278,438.283ZM319.278,403.388C317.305,405.669 313.852,405.919 311.571,403.943C275.298,372.634 225.489,360.029 183.171,357.142C180.155,356.942 177.874,354.337 178.077,351.321C178.276,348.306 180.882,346.024 183.898,346.228C228.605,349.274 280.386,362.662 318.718,395.677C320.999,397.649 321.249,401.102 319.272,403.384L319.278,403.388ZM319.278,368.493C317.305,370.774 313.852,371.024 311.571,369.048C275.298,337.739 225.489,325.134 183.171,322.247C180.155,322.047 177.874,319.442 178.077,316.426C178.28,313.411 180.882,311.129 183.898,311.333C228.605,314.379 280.386,327.767 318.718,360.782C320.999,362.754 321.249,366.207 319.272,368.489L319.278,368.493ZM383.731,306.653C381.251,323.54 367.391,336.755 350.008,336.755C332.625,336.755 318.766,323.544 316.285,306.653L383.734,306.653L383.731,306.653ZM384.129,295.7L315.883,295.7L315.883,265.598L384.129,265.598L384.129,295.7ZM344.527,254.645L315.734,254.645C314.516,232.547 305.957,220.516 297.195,208.2C288.305,195.704 279.187,182.888 279.187,156.802C279.187,117.154 309.195,81.755 350.011,81.755C390.827,81.755 420.835,117.146 420.835,156.802C420.835,182.896 411.718,195.704 402.827,208.2C394.066,220.512 385.503,232.548 384.288,254.645L355.495,254.645L355.488,156.774C355.488,153.747 353.031,151.297 350.011,151.297C346.988,151.297 344.534,153.754 344.534,156.774L344.534,254.618L344.527,254.645ZM316.867,539.845C256.305,518.349 178.977,512.743 93.717,527.208C90.659,527.728 87.651,525.79 87.108,522.599L87.034,260.699C87.034,257.871 88.96,255.566 91.741,255.074L109.632,252.179L109.632,488.429C109.632,498.027 117.706,505.702 127.417,505.042C189.081,500.866 262.997,506.257 316.857,539.827L316.867,539.845Z"/>
    </g>
</svg>
