<?xml version="1.0" encoding="UTF-8" standalone="no"?>
<!DOCTYPE svg PUBLIC "-//W3C//DTD SVG 1.1//EN" "http://www.w3.org/Graphics/SVG/1.1/DTD/svg11.dtd">
<svg width="100%" height="100%" viewBox="0 0 700 700" version="1.1" xmlns="http://www.w3.org/2000/svg" xmlns:xlink="http://www.w3.org/1999/xlink" xml:space="preserve" xmlns:serif="http://www.serif.com/" style="fill-rule:evenodd;clip-rule:evenodd;stroke-linejoin:round;stroke-miterlimit:2;">
    <g transform="matrix(1.68364,0,0,1.68364,-240.31,-122.322)">
        <path d="M312.37,115.91C313.757,97.969 320.585,84.824 337.85,79.383C349.373,75.75 359.885,77.332 367.686,87.266C374.772,96.293 381.252,105.797 389.155,116.684C397.171,117.727 406.991,118.5 415.725,126.305C419.991,130.113 429.905,127.981 437.248,127.848C444.658,127.711 452.139,125.684 459.432,126.313C477.041,127.832 486.725,137.602 488.924,154.504C489.147,156.226 489.053,157.992 489.061,159.738C489.463,248.812 489.904,337.888 490.17,426.968C490.186,432.718 489.143,438.519 488.115,444.214C485.737,457.39 477.779,465.851 465.275,470.241C448.255,476.218 431.279,481.374 412.763,481.319C370.279,481.202 327.786,482.698 285.303,482.35C270.385,482.229 255.393,479.174 240.615,476.491C226.334,473.893 218.342,463.225 215.912,450.159C212.744,433.124 210.807,415.636 210.623,398.315C210.205,359.358 209.924,320.315 211.994,281.435C213.858,246.431 211.283,211.716 210.076,176.885C209.873,171.076 209.541,165.182 210.26,159.447C212.006,145.513 220.475,136.049 234.151,132.951C240.901,131.424 247.921,130.767 254.854,130.439C266.502,129.885 277.483,129.134 287.952,121.966C294.108,117.752 303.3,117.966 312.366,115.908L312.37,115.91ZM367.733,111.543L367.85,111.933C366.932,109.805 366.186,107.578 365.065,105.558C358.409,93.566 352.323,90.242 341.585,92.542C330.507,94.914 327.335,103.284 326.007,113.054C325.237,118.734 324.499,124.417 323.839,129.39C321.941,130.617 321.023,131.687 320.011,131.781C314.819,132.261 309.609,132.547 304.402,132.801C291.578,133.422 289.547,134.742 286.082,146.942C284.531,152.406 283.965,158.153 282.551,165.997C326.414,165.332 368.86,169.586 413.561,167.207C409.756,154.828 406.596,144.547 403.373,134.055C400.607,133.423 398.412,132.634 396.17,132.458C382.275,131.356 373.287,124.673 369.213,112.403C369.08,111.996 368.24,111.825 367.732,111.543L367.733,111.543ZM451.999,374.763C452.429,364.946 453.198,356.919 453.058,348.908C452.159,297.08 451.042,245.258 450.05,193.428C449.897,185.459 450.03,177.487 450.03,168.959L430.952,168.959C430.441,178.412 424.382,181.232 415.917,180.846C413.019,180.713 410.101,181.158 407.191,181.115C367.003,180.514 326.816,179.514 286.631,179.471C275.389,179.459 266.123,177.951 261.893,166.94C246.139,169.92 245.971,169.913 245.143,182.807C244.772,188.596 245.217,194.44 245.311,200.26C245.604,218.319 246.467,236.385 246.104,254.428C244.959,311.03 247.631,367.448 253.17,423.748C253.615,428.271 254.58,432.744 255.486,438.385C262.783,439.623 269.591,441.924 276.322,441.721C307.674,440.775 339.006,439.154 370.342,437.701C372.647,437.596 374.94,436.99 377.21,436.486C383.776,435.029 387.186,431.233 386.866,424.166C386.389,413.693 386.405,403.201 385.924,392.728C385.256,378.162 387.729,375.068 402.197,374.814C417.892,374.537 433.595,374.752 451.998,374.752L451.999,374.763ZM423.472,143.193C422.812,144.564 422.156,145.935 421.495,147.31C424.179,149.638 426.519,153.009 429.632,154.021C433.327,155.224 437.706,154.134 441.749,154.497C459.464,156.095 462.573,159.443 462.937,177.306C463.101,185.463 462.832,193.626 462.996,201.779C463.558,229.724 464.191,257.674 464.867,285.615C465.543,313.506 466.003,341.412 467.199,369.279C467.617,379.037 463.964,386.263 457.074,392.217C440.875,406.209 423.957,419.42 408.336,434.022C394.578,446.877 377.758,450.557 360.418,452.401C341.977,454.358 323.34,455.261 304.797,455.191C288.602,455.128 272.231,454.202 256.281,451.573C241.894,449.198 242.015,447.89 240.554,433.042C234.394,370.366 231.796,307.562 233.175,244.582C233.659,222.461 233.753,200.273 232.593,178.187C231.737,161.894 242.913,154.96 255.46,152.488C259.429,151.707 263.624,152.031 267.558,151.149C269.241,150.77 270.523,148.598 271.988,147.242C271.745,146.067 271.503,144.887 271.265,143.711C264.679,143.711 258.085,143.582 251.503,143.735C228.608,144.262 222.21,150.59 222.839,173.184C223.991,214.45 225.499,255.61 224.542,297.004C223.765,330.625 223.788,364.399 223.226,398.114C222.987,412.536 225.315,427.032 226.952,441.438C228.339,453.633 234.632,462.09 247.405,464.047C258.268,465.711 269.214,468.031 280.124,468.031C323.804,468.043 367.483,466.84 411.164,467C426.605,467.054 441.019,463.664 455.648,459.758C468.836,456.238 475.082,447.985 475.562,434.754C476.109,419.629 477.176,404.496 477.062,389.371C476.48,313.094 475.586,236.821 474.801,160.551C474.789,159.386 474.843,158.211 474.726,157.054C473.41,144.05 467.422,138.136 454.253,138.866C443.944,139.437 433.73,141.687 423.472,143.191L423.472,143.193ZM400.085,423.833C414.355,411.138 425.925,400.845 439.624,388.657L400.085,388.657L400.085,423.833ZM424.452,234.283C376.222,234.701 327.991,235.255 279.762,235.912C274.575,235.982 269.121,236.091 264.313,237.72C261.325,238.732 259.317,242.642 256.868,245.252C260.075,246.884 263.27,249.892 266.485,249.912C282.723,250.021 298.965,249.22 315.212,248.986C349.501,248.494 383.794,248.209 418.082,247.701C424.902,247.599 432.262,247.9 435.574,236.662C430.855,235.611 427.644,234.252 424.449,234.279L424.452,234.283ZM272.012,218.392C281.313,218.286 290.617,217.974 299.91,218.165C341.758,219.017 383.601,220.095 425.45,220.829C429.575,220.904 433.735,219.189 438.368,218.2C434.411,204.938 424.919,207.911 417.466,207.653C375.665,206.196 333.853,204.989 292.036,204.017C281.786,203.778 271.102,202.755 262.208,209.392C261.337,217.595 266.251,218.462 272.013,218.396L272.012,218.392ZM264.075,289.501C267.254,291.157 270.364,294.091 273.625,294.27C301.945,295.829 330.285,297.083 358.633,298.024C373.66,298.524 388.723,297.981 403.758,298.384C412.438,298.618 421.074,300.126 429.758,300.462C437.333,300.755 442.18,298.134 438.11,287.56C418.825,286.161 399.294,284.153 379.719,283.497C360.606,282.857 341.434,283.157 322.313,283.864C303.231,284.567 283.793,277.157 264.973,284.083C264.672,285.888 264.371,287.696 264.071,289.501L264.075,289.501ZM426.275,317.739C378.384,312.528 330.423,308.528 282.195,308.794C279.874,308.805 277.448,308.555 275.253,309.118C270.097,310.446 261.526,308.567 262.194,316.907C262.87,325.344 270.823,322.11 276.19,322.286C316.147,323.61 356.272,320.337 396,328.344C408.66,330.895 422.152,332.696 434.809,327.887C437.001,319.333 431.868,318.344 426.278,317.735L426.275,317.739ZM280.405,349.969C308.702,352.137 336.96,354.871 365.28,356.563C380.682,357.484 396.182,356.727 411.55,356.727C414.335,345.653 407.147,345.438 400.788,344.832C388.694,343.679 376.581,342.734 364.468,341.828C338.452,339.882 312.445,337.714 286.394,336.339C280.077,336.007 273.621,338.398 267.425,339.504C268.3,350.559 274.651,349.531 280.405,349.973L280.405,349.969ZM322.839,273.879C332.592,274.844 342.331,276.094 352.105,276.547C354.237,276.644 357.831,274.262 358.351,272.363C358.913,270.312 357.21,265.836 355.546,265.289C348.519,262.973 341.21,260.844 333.874,260.258C315.405,258.785 296.874,258.055 278.354,257.336C273.819,257.16 269.041,257.562 264.76,258.922C262.752,259.559 260.416,263.164 260.526,265.305C260.623,267.277 263.658,270.574 265.635,270.758C284.627,272.539 303.67,273.785 322.701,275.18C322.744,274.742 322.791,274.309 322.834,273.871L322.839,273.879ZM353.616,364.406C339.768,363.05 325.854,361.644 311.968,361.644C297.495,361.648 282.991,363.019 268.573,364.496C266.201,364.738 262.28,368.843 262.51,370.746C262.815,373.242 266.213,375.89 268.889,377.375C270.58,378.312 273.381,377.125 275.686,377.105C296.518,376.91 317.358,376.425 338.182,376.757C346.674,376.894 355.139,378.836 365.631,380.222C363.416,366.417 362.865,365.308 353.611,364.402L353.616,364.406ZM356.002,396.472C330.568,394.484 305.139,392.421 279.67,391.023C276.717,390.859 273.549,394.663 270.479,396.624C273.323,398.827 276.037,402.71 279.037,402.948C294.709,404.187 310.486,404.046 326.158,405.269C338.732,406.253 351.209,408.499 364.607,410.308C367.252,399.691 362.709,396.992 356.002,396.468L356.002,396.472ZM367.826,111.872C364.432,108.649 361.486,104.751 357.599,102.446C349.205,97.466 338.767,100.907 333.548,109.626C328.954,117.294 332.236,127.501 340.665,131.778C348.806,135.907 357.524,132.938 362.513,123.918C364.67,120.02 366.021,115.676 367.736,111.531C367.736,111.531 367.853,111.922 367.83,111.871L367.826,111.872Z" style="fill-opacity:0.31;fill-rule:nonzero;"/>
    </g>
</svg>
