<?xml version="1.0" encoding="UTF-8" standalone="no"?>
<!DOCTYPE svg PUBLIC "-//W3C//DTD SVG 1.1//EN" "http://www.w3.org/Graphics/SVG/1.1/DTD/svg11.dtd">
<svg width="100%" height="100%" viewBox="0 0 128 128" version="1.1" xmlns="http://www.w3.org/2000/svg" xmlns:xlink="http://www.w3.org/1999/xlink" xml:space="preserve" xmlns:serif="http://www.serif.com/" style="fill-rule:evenodd;clip-rule:evenodd;stroke-linejoin:round;stroke-miterlimit:2;">
    <path d="M128,27.5C128,12.322 115.678,0 100.5,0L27.5,0C12.322,0 0,12.322 0,27.5L0,100.5C0,115.678 12.322,128 27.5,128L100.5,128C115.678,128 128,115.678 128,100.5L128,27.5Z" style="fill:rgb(0,123,255);"/>
    <path d="M125.5,27.5C125.5,13.702 114.298,2.5 100.5,2.5L27.5,2.5C13.702,2.5 2.5,13.702 2.5,27.5L2.5,100.5C2.5,114.298 13.702,125.5 27.5,125.5L100.5,125.5C114.298,125.5 125.5,114.298 125.5,100.5L125.5,27.5Z" style="fill:rgb(0,123,255);"/>
    <path d="M123,28.5C123,15.53 112.47,5 99.5,5L28.5,5C15.53,5 5,15.53 5,28.5L5,99.5C5,112.47 15.53,123 28.5,123L99.5,123C112.47,123 123,112.47 123,99.5L123,28.5Z" style="fill:rgb(0,123,255);"/>
    <circle cx="34" cy="94.5" r="12" style="fill:white;"/>
    <path d="M80,106.5L63,106.5C63,84.008 44.492,65.5 22,65.5L22,48.5C53.818,48.5 80,74.682 80,106.5Z" style="fill:white;fill-rule:nonzero;"/>
    <path d="M92,106.5C92,68.099 60.401,36.5 22,36.5L22,19C70.001,19 109.5,58.499 109.5,106.5L92,106.5Z" style="fill:white;fill-rule:nonzero;"/>
</svg>
